HIERARCHY
ROOT Hips
{
	OFFSET 0.000000 0.000000 0.000000
	CHANNELS 6 Xposition Yposition Zposition Zrotation Yrotation Xrotation 
	JOINT LeftUpLeg_virtual
	{
		OFFSET 0.000000 0.000000 0.000000
		CHANNELS 3 Zrotation Yrotation Xrotation
		JOINT LeftUpLeg
		{
			OFFSET 10.205400 -3.823500 0.155100
			CHANNELS 3 Zrotation Yrotation Xrotation
			JOINT LeftLeg
			{
				OFFSET 0.708757 -12.982077 0.567790
				CHANNELS 3 Zrotation Yrotation Xrotation
				JOINT LeftFoot
				{
					OFFSET -0.708756 -10.717838 -2.184338
					CHANNELS 3 Zrotation Yrotation Xrotation
					JOINT LeftToeBase
					{
						OFFSET 0.108149 -7.191104 7.560241
						CHANNELS 3 Zrotation Yrotation Xrotation
						End Site
						{
							OFFSET 0.000000 0.000000 0.000000
						}
					}
				}
			}
		}
	}
	JOINT RightUpLeg_virtual
	{
		OFFSET 0.000000 0.000000 0.000000
		CHANNELS 3 Zrotation Yrotation Xrotation
		JOINT RightUpLeg
		{
			OFFSET -10.205400 -3.823500 0.005500
			CHANNELS 3 Zrotation Yrotation Xrotation
			JOINT RightLeg
			{
				OFFSET -0.708756 -12.982134 0.610632
				CHANNELS 3 Zrotation Yrotation Xrotation
				JOINT RightFoot
				{
					OFFSET 0.708754 -10.717769 -1.945823
					CHANNELS 3 Zrotation Yrotation Xrotation
					JOINT RightToeBase
					{
						OFFSET -0.108140 -7.191069 7.372968
						CHANNELS 3 Zrotation Yrotation Xrotation
						End Site
						{
							OFFSET 0.000000 0.000000 0.000000
						}
					}
				}
			}
		}
	}
	JOINT Spine_virtual
	{
		OFFSET 0.000000 0.000000 0.000000
		CHANNELS 3 Zrotation Yrotation Xrotation
		JOINT Spine
		{
			OFFSET 0.000000 6.876099 0.125700
			CHANNELS 3 Zrotation Yrotation Xrotation
			JOINT Spine1
			{
				OFFSET 0.000000 8.022060 0.146608
				CHANNELS 3 Zrotation Yrotation Xrotation
				JOINT Spine2
				{
					OFFSET 0.000000 9.168068 0.167552
					CHANNELS 3 Zrotation Yrotation Xrotation
					JOINT Neck_virtual
					{
						OFFSET 0.000000 0.000000 0.000000
						CHANNELS 3 Zrotation Yrotation Xrotation
						JOINT Neck
						{
							OFFSET 0.000000 10.314075 0.188496
							CHANNELS 3 Zrotation Yrotation Xrotation
							JOINT Head
							{
								OFFSET 0.000000 7.643700 -2.377400
								CHANNELS 3 Zrotation Yrotation Xrotation
								End Site
								{
									OFFSET 0.000000 0.000000 0.000000
								}
							}
						}
					}
					JOINT LeftShoulder_virtual
					{
						OFFSET 0.000000 0.000000 0.000000
						CHANNELS 3 Zrotation Yrotation Xrotation
						JOINT LeftShoulder
						{
							OFFSET 4.392200 8.824978 0.174984
							CHANNELS 3 Zrotation Yrotation Xrotation
							JOINT LeftArm
							{
								OFFSET 8.771219 -2.981674 -0.026999
								CHANNELS 3 Zrotation Yrotation Xrotation
								JOINT LeftForeArm
								{
									OFFSET 8.512804 0.000000 -0.000000
									CHANNELS 3 Zrotation Yrotation Xrotation
									JOINT LeftHand
									{
										OFFSET 18.484802 0.000000 -0.000000
										CHANNELS 3 Zrotation Yrotation Xrotation
										End Site
										{
											OFFSET 0.000000 0.000000 0.000000
										}
									}
								}
							}
						}
					}
					JOINT RightShoulder_virtual
					{
						OFFSET 0.000000 0.000000 0.000000
						CHANNELS 3 Zrotation Yrotation Xrotation
						JOINT RightShoulder
						{
							OFFSET -4.392200 8.824993 0.141379
							CHANNELS 3 Zrotation Yrotation Xrotation
							JOINT RightArm
							{
								OFFSET -8.771282 -2.981682 -0.094208
								CHANNELS 3 Zrotation Yrotation Xrotation
								JOINT RightForeArm
								{
									OFFSET -8.494598 0.000000 0.000000
									CHANNELS 3 Zrotation Yrotation Xrotation
									JOINT RightHand
									{
										OFFSET -18.483803 0.000000 0.000001
										CHANNELS 3 Zrotation Yrotation Xrotation
										End Site
										{
											OFFSET 0.000000 0.000000 0.000000
										}
									}
								}
							}
						}
					}
				}
			}
		}
	}
}
MOTION
Frames: 13
Frame Time: 0.033333
-4.758628 34.290798 0.914837 -179.511141 31.358860 179.967370 -2.209671 -1.438504 8.205342 -20.486193 4.808360 -34.127102 14.574128 9.339658 15.370743 -1.286381 5.576229 5.730170 0.000000 0.000000 0.000000 4.820464 -0.105681 7.492779 3.668635 -9.297668 -24.878112 -5.581300 1.288934 45.470622 11.285551 7.954385 19.886500 0.000000 0.000000 0.000000 2.877126 1.220779 -3.945783 -0.836725 -1.197111 -7.669494 0.288134 -2.505528 8.126611 -0.095747 -0.035430 -0.047314 -0.519738 -0.180835 12.249586 -3.929081 2.823088 18.557718 0.000000 0.000000 0.000000 1.117589 0.583447 9.533454 -15.422007 -6.846650 -1.595828 -67.972690 27.541322 -36.608349 0.918417 -57.444247 4.067181 0.000000 0.000000 0.000000 -2.473983 1.554499 8.798490 20.031960 7.163169 1.429387 56.792097 -22.886422 -41.995872 -10.405694 47.945916 -10.198520 0.000000 0.000000 0.000000 
-4.502696 34.175739 0.303593 -179.455926 30.559885 -179.945200 -1.732783 -1.493816 8.334537 -21.495524 4.155908 -33.334530 15.538518 9.126207 16.198753 -1.759111 5.758530 4.149783 0.000000 0.000000 0.000000 4.460175 -0.204905 8.001469 2.600330 -9.940793 -27.900361 -6.982510 0.388018 50.987574 9.623632 6.968038 17.926337 0.000000 0.000000 0.000000 3.159745 1.481731 -3.595156 -0.534831 -1.533590 -7.043843 0.275659 -2.607130 7.754381 -0.022779 -0.199705 -0.003322 -0.670565 -0.168740 11.811577 -4.201447 2.618231 17.622539 0.000000 0.000000 0.000000 0.893993 0.417047 9.213177 -16.316945 -7.565642 -1.874587 -67.863728 25.799752 -39.980038 1.316473 -49.561714 2.781845 0.000000 0.000000 0.000000 -2.550241 1.330130 8.449138 19.970626 8.177984 1.869869 54.181077 -20.454349 -45.443263 -9.452329 40.809779 -8.495016 0.000000 0.000000 0.000000 
-4.213144 34.111290 -0.232060 -179.504844 30.126564 -179.925761 -1.360537 -1.167063 8.841897 -22.323239 3.735217 -33.051412 16.110524 8.707643 16.924013 -2.366636 5.840805 3.083446 0.000000 0.000000 0.000000 4.276121 0.430380 8.533911 1.039138 -9.737102 -30.952027 -7.593208 0.605385 55.920398 8.465973 6.391161 15.327038 0.000000 0.000000 0.000000 3.452100 1.778858 -3.053315 -0.376578 -1.960259 -6.471162 0.210093 -2.678370 7.366879 -0.084514 -0.065672 -0.030846 -0.675843 -0.352218 11.526095 -4.177374 2.375920 16.728557 0.000000 0.000000 0.000000 0.882227 0.505439 8.944849 -16.965637 -8.157741 -2.027957 -68.116657 24.607143 -42.702821 1.246221 -44.072315 2.196046 0.000000 0.000000 0.000000 -2.443782 1.362652 8.280842 19.995667 9.045459 2.259351 52.684510 -18.498971 -48.064164 -9.151635 36.132514 -7.579251 0.000000 0.000000 0.000000 
-3.892099 34.134838 -0.702693 -179.681144 29.468954 -179.886023 -1.188599 -0.949134 9.387107 -22.836449 3.467940 -32.955670 16.423733 8.241974 17.440181 -3.059768 5.880253 2.667027 0.000000 0.000000 0.000000 4.051394 0.846052 9.075645 -1.035182 -8.749079 -33.682791 -7.754745 1.045910 57.996830 8.123723 6.270142 14.449947 0.000000 0.000000 0.000000 3.606999 1.987133 -2.513101 -0.386449 -2.351283 -6.005150 0.267740 -2.672957 7.011926 -0.031034 -0.066374 0.000872 -0.689261 -0.238002 11.289895 -4.022658 2.179291 15.995687 0.000000 0.000000 0.000000 0.861414 0.653353 8.724631 -17.566524 -8.613627 -2.125036 -68.989589 24.321663 -44.667948 1.180499 -41.252867 1.783628 0.000000 0.000000 0.000000 -2.441283 1.419557 8.107143 20.105480 9.530820 2.517148 52.330959 -17.407827 -49.995964 -8.911614 33.782959 -6.934959 0.000000 0.000000 0.000000 
-3.543301 34.236893 -1.140075 -179.824961 28.560626 -179.943861 -1.104477 -0.949980 9.970824 -23.012186 3.386669 -32.667979 16.494016 7.685891 17.650853 -3.827904 5.700243 2.793090 0.000000 0.000000 0.000000 3.939402 0.924815 9.616913 -3.440948 -7.022811 -35.641758 -7.929855 1.516787 56.626182 7.877452 5.998071 13.751051 0.000000 0.000000 0.000000 3.693795 2.027336 -2.005911 -0.534014 -2.606736 -5.557900 0.404383 -2.520790 6.749823 -0.017601 -0.163665 0.042116 -0.507637 -0.192896 11.149003 -3.665983 1.956114 15.399973 0.000000 0.000000 0.000000 1.009400 0.659502 8.527399 -18.086320 -8.704575 -2.061013 -70.456755 24.807058 -46.083963 1.010994 -40.788408 1.632375 0.000000 0.000000 0.000000 -2.262802 1.476479 7.990347 20.277833 9.640525 2.697723 53.148352 -17.137346 -51.201922 -8.944338 33.146505 -6.701937 0.000000 0.000000 0.000000 
-3.201278 34.375275 -1.572039 -179.905981 27.568419 -179.983066 -1.032896 -1.048522 10.367670 -22.886067 3.423017 -32.213009 16.383527 7.144810 17.732354 -4.483407 5.329973 3.103118 0.000000 0.000000 0.000000 3.927474 1.000008 9.962829 -5.710220 -4.641025 -36.734578 -8.157065 1.787062 52.147507 7.909166 5.531951 13.452788 0.000000 0.000000 0.000000 3.669710 2.251788 -1.695324 -0.800386 -2.982730 -5.135579 0.614006 -2.471305 6.587869 -0.015611 -0.029140 0.007767 -0.224532 -0.145218 11.202848 -3.212136 1.667860 14.962648 0.000000 0.000000 0.000000 1.275603 0.719242 8.566247 -18.534582 -8.890917 -2.029311 -72.096499 25.747324 -46.800528 0.894564 -41.648216 1.494255 0.000000 0.000000 0.000000 -2.008913 1.534902 7.977638 20.557848 9.376969 2.850960 54.611133 -17.571975 -51.878982 -8.938850 33.266235 -6.396031 0.000000 0.000000 0.000000 
-2.865812 34.498360 -1.997470 -179.836162 26.362788 -179.967083 -1.049914 -1.344253 10.596212 -22.342623 3.519288 -31.627826 15.939800 6.658575 17.994041 -4.774855 4.894278 3.199311 0.000000 0.000000 0.000000 4.042162 0.989434 10.094460 -7.317732 -1.919390 -37.167034 -8.386070 2.015216 45.681214 8.154079 4.954666 13.472898 0.000000 0.000000 0.000000 3.631202 2.309437 -1.639055 -1.108630 -3.300930 -4.745839 0.874592 -2.355958 6.562248 -0.009640 -0.016628 0.006503 0.048231 -0.008819 11.297598 -2.664853 1.379303 14.584202 0.000000 0.000000 0.000000 1.520701 0.852081 8.646001 -18.907980 -9.022256 -1.986810 -73.422232 26.694213 -47.091982 0.762993 -42.924355 1.374332 0.000000 0.000000 0.000000 -1.816839 1.666005 8.071317 20.875285 8.962393 2.850981 56.157494 -18.558988 -52.296081 -8.854385 33.494134 -6.171683 0.000000 0.000000 0.000000 
-2.519641 34.583698 -2.411774 -179.843075 24.852137 -179.846189 -1.082960 -1.614480 10.562082 -21.778712 3.187564 -31.002085 15.715376 6.232139 18.634085 -4.780247 4.255662 2.812550 0.000000 0.000000 0.000000 4.050677 0.942686 9.894836 -7.972485 1.051339 -37.009011 -8.359464 2.223894 38.158187 9.492205 4.687722 10.974692 0.000000 0.000000 0.000000 3.501879 2.324535 -1.835309 -1.510238 -3.586037 -4.446716 1.068842 -2.239404 6.608917 -0.016236 -0.010954 0.045383 0.287266 0.114911 11.398116 -2.065144 1.080285 14.248234 0.000000 0.000000 0.000000 1.739277 0.984611 8.763478 -19.039164 -9.302589 -1.968016 -74.018623 27.328973 -47.070894 0.729605 -43.809708 1.185548 0.000000 0.000000 0.000000 -1.635823 1.824894 8.205084 21.200554 8.573814 2.828587 57.324364 -19.615584 -52.582696 -8.717882 33.392679 -5.879014 0.000000 0.000000 0.000000 
-2.141212 34.624268 -2.810850 -179.884575 23.724703 -179.962685 -1.046310 -1.217984 10.597186 -21.085538 2.307360 -30.279745 15.528751 5.874384 19.582040 -4.543077 3.563592 2.056388 0.000000 0.000000 0.000000 4.172960 0.471216 9.306243 -7.749430 3.659538 -36.946153 -8.088104 1.985189 30.963563 11.003698 4.570248 9.819575 0.000000 0.000000 0.000000 3.383052 2.357849 -2.019542 -1.936414 -3.671078 -4.101393 1.179223 -2.013525 6.730982 -0.006518 0.069873 -0.023795 0.386522 0.291330 11.575677 -1.529441 0.741773 13.989414 0.000000 0.000000 0.000000 1.839812 1.197674 8.883168 -19.037281 -9.595396 -1.985765 -73.832815 27.675764 -46.892473 0.635705 -44.105216 1.004986 0.000000 0.000000 0.000000 -1.590600 2.026090 8.485147 21.502030 8.297181 2.690600 57.864748 -20.606126 -52.948385 -8.524949 32.823697 -5.510761 0.000000 0.000000 0.000000 
-1.718480 34.647686 -3.181603 179.990771 22.322655 179.838293 -1.006961 -1.378592 10.585103 -20.220027 1.219294 -29.600824 15.325105 5.436306 20.573162 -4.203753 2.859711 1.399751 0.000000 0.000000 0.000000 4.281787 0.163787 8.690153 -7.358995 6.025948 -36.579587 -8.022803 2.825476 26.662584 11.804847 4.090347 9.437441 0.000000 0.000000 0.000000 3.290498 2.238334 -2.286198 -2.383745 -3.710428 -3.859322 1.165231 -1.838727 6.808433 -0.020914 0.126845 0.001692 0.431482 0.390051 11.792264 -1.027620 0.419052 13.766524 0.000000 0.000000 0.000000 1.872051 1.395195 9.022283 -18.906411 -9.881154 -2.001550 -73.113610 27.849574 -46.793978 0.534284 -44.006933 0.804332 0.000000 0.000000 0.000000 -1.570766 2.230702 8.753509 21.863722 8.119535 2.536455 57.738553 -21.370081 -53.452698 -8.284999 31.956201 -5.004699 0.000000 0.000000 0.000000 
-1.281789 34.694523 -3.542578 -179.891419 20.722184 179.842610 -0.843373 -1.798052 10.520785 -19.362027 0.495530 -29.011898 15.339867 5.053116 21.470592 -4.093680 1.990579 0.961928 0.000000 0.000000 0.000000 4.611926 -0.150957 8.337355 -7.595602 8.374950 -36.006360 -8.465282 4.854730 24.320157 12.428401 4.522110 8.773883 0.000000 0.000000 0.000000 3.450935 1.968341 -2.890348 -2.761549 -3.677040 -3.686391 1.119746 -1.739496 7.059785 0.007149 0.098665 -0.032170 0.332964 0.419585 11.949248 -0.645295 0.094057 13.489119 0.000000 0.000000 0.000000 1.741670 1.507044 9.193289 -18.798567 -10.054005 -2.020991 -72.116354 28.072238 -46.719092 0.537527 -43.922170 0.496124 0.000000 0.000000 0.000000 -1.582595 2.425086 8.928975 22.200842 7.925625 2.438082 57.113666 -21.960158 -53.874374 -8.099548 31.137719 -4.731249 0.000000 0.000000 0.000000 
-0.849735 34.736374 -3.884338 179.813104 19.059267 179.821040 -0.916237 -2.256928 10.449856 -18.444849 -0.540721 -28.358170 15.136777 4.963711 21.984567 -4.037100 1.356018 0.837086 0.000000 0.000000 0.000000 3.960368 -0.310593 8.262299 -7.839538 10.889910 -35.245808 -9.171433 6.210016 22.943989 12.671797 4.689132 7.758826 0.000000 0.000000 0.000000 3.261651 1.753121 -3.580944 -3.074784 -3.763813 -3.675189 1.028540 -1.823257 7.171123 -0.005313 0.128534 -0.021443 0.332827 0.547026 12.137941 -0.357578 -0.199850 13.365522 0.000000 0.000000 0.000000 1.781263 1.558753 9.384306 -18.702525 -10.118503 -2.023074 -71.232541 28.535490 -46.576429 0.565904 -44.140535 0.173632 0.000000 0.000000 0.000000 -1.671913 2.369241 9.131457 22.574072 7.866048 2.299765 56.380702 -22.378430 -53.984169 -7.912399 30.479852 -4.359068 0.000000 0.000000 0.000000 
-0.437170 34.806782 -4.192273 179.928165 17.530509 -179.905380 -0.773690 -2.470776 10.222630 -17.332291 -1.537110 -27.662922 15.057635 5.152342 22.100266 -4.397230 0.688094 0.933908 0.000000 0.000000 0.000000 3.217993 -0.197298 8.410879 -7.911679 13.490518 -34.091110 -9.569431 6.577966 22.202227 12.441115 4.688288 6.934385 0.000000 0.000000 0.000000 3.328205 1.549423 -4.364738 -3.203541 -3.664276 -3.826987 1.058176 -1.745694 7.360412 -0.003584 0.050636 -0.039109 0.361539 0.462522 12.320742 -0.154671 -0.442617 13.171756 0.000000 0.000000 0.000000 1.790949 1.432813 9.572894 -18.703165 -10.175746 -2.063326 -70.405918 29.137983 -46.599304 0.372696 -44.776179 0.121364 0.000000 0.000000 0.000000 -1.715526 2.231371 9.263271 22.886700 7.671458 2.245209 55.689695 -22.657127 -53.938028 -7.760960 30.113344 -4.143898 0.000000 0.000000 0.000000 
